<?xml version="1.0" encoding="UTF-8"?>
<svg width="31px" height="11px" viewBox="0 0 31 11" version="1.1" xmlns="http://www.w3.org/2000/svg" xmlns:xlink="http://www.w3.org/1999/xlink">
    <!-- Generator: Sketch 47.1 (45422) - http://www.bohemiancoding.com/sketch -->
    <title>Group 2@1x</title>
    <desc>Created with Sketch.</desc>
    <defs></defs>
    <g id="Page-1" stroke="none" stroke-width="1" fill="none" fill-rule="evenodd">
        <g id="冷站调节过程及原理2" transform="translate(-1040.000000, -164.000000)" fill-rule="nonzero" fill="#0090FF">
            <g id="Group-2" transform="translate(1040.000000, 164.000000)">
                <path d="M10.8882587,2.99962798 L0.788551355,2.99962798 L0.788551355,7.99962798 L10.8882587,7.99962798 C10.5048301,7.2495606 10.2885514,6.3998516 10.2885514,5.49962798 C10.2885514,4.59940437 10.5048301,3.74969537 10.8882612,2.99962742 Z M20.688844,2.99962798 L30.7350396,2.99962798 L30.7350396,7.99962798 L20.688844,7.99962798 C21.0722726,7.2495606 21.2885514,6.3998516 21.2885514,5.49962798 C21.2885514,4.59940437 21.0722726,3.74969537 20.6888415,2.99962742 Z" id="Combined-Shape"></path>
                <path d="M15.7885514,10.999628 C12.7509852,10.999628 10.2885514,8.53719411 10.2885514,5.49962798 C10.2885514,2.46206186 12.7509852,-0.000372016853 15.7885514,-0.000372016853 C18.8261175,-0.000372016853 21.2885514,2.46206186 21.2885514,5.49962798 C21.2885514,8.53719411 18.8261175,10.999628 15.7885514,10.999628 Z M15.7885514,9.99962798 C18.2738327,9.99962798 20.2885514,7.98490936 20.2885514,5.49962798 C20.2885514,3.01434661 18.2738327,0.999627983 15.7885514,0.999627983 C13.30327,0.999627983 11.2885514,3.01434661 11.2885514,5.49962798 C11.2885514,7.98490936 13.30327,9.99962798 15.7885514,9.99962798 Z" id="Oval-2-Copy-69"></path>
            </g>
        </g>
    </g>
</svg>